<svg width="24" height="24" viewBox="0 0 24 24" fill="none" xmlns="http://www.w3.org/2000/svg">
<path d="M23.2867 6.56988V16.7167C23.2867 20.345 20.3451 23.2868 16.7167 23.2868H6.56997C2.94136 23.2868 0 20.345 0 16.7167V6.56988C0 2.94122 2.94136 0 6.56997 0H16.7167C20.3451 0 23.2867 2.94122 23.2867 6.56988Z" fill="#4561B6"/>
<path d="M9.24894 23.287L9.26544 14.9696H6.7832V12.0057H9.26471V10.2774H9.25347L9.25601 10.0304C9.26362 9.27374 9.30479 8.39028 9.5514 7.57428C9.80852 6.72419 10.256 6.05308 10.9199 5.52141C11.4791 5.07442 12.1593 4.77123 12.887 4.64593C13.4005 4.55726 13.9394 4.51465 14.5345 4.51465C15.226 4.51465 15.9821 4.57304 16.846 4.69326L17.0567 4.723V7.50465L16.4799 7.50918L15.6087 7.51535C14.9924 7.51988 14.3474 7.5877 13.8061 8.04919C13.2705 8.50688 12.9896 9.21807 12.994 10.1066L12.9814 11.7002L12.9793 12.0057H16.813L16.2439 15.0731H13.0308L13.0188 23.287H9.24894Z" fill="white"/>
</svg>
