<svg width="24" height="24" viewBox="0 0 24 24" fill="none" xmlns="http://www.w3.org/2000/svg">
<path d="M23.2867 6.56988V16.7167C23.2867 20.345 20.3451 23.2868 16.7167 23.2868H6.56997C2.94136 23.2868 0 20.345 0 16.7167V6.56988C0 2.94122 2.94136 0 6.56997 0H16.7167C20.3451 0 23.2867 2.94122 23.2867 6.56988Z" fill="#E71C27"/>
<path d="M12.3058 3.00505C9.55715 3.00595 6.78823 4.24066 5.55845 6.81707C4.92125 8.15224 4.79631 9.76158 5.35572 11.1483C5.59326 11.7365 5.97206 12.2707 6.49574 12.6376C6.70427 12.7832 7.08579 13.0581 7.35833 12.9848C7.63541 12.9096 7.66007 12.5132 7.71936 12.2829C7.78065 12.0448 7.92046 11.7546 7.78954 11.5229C7.61546 11.2134 7.34528 10.9876 7.21853 10.6414C7.04862 10.1794 6.97301 9.63265 7.0022 9.14341C7.09232 7.61276 7.9395 6.20162 9.25632 5.4148C11.2976 4.19515 14.7503 4.38645 15.9006 6.75487C16.4753 7.93772 16.3333 9.40798 16.0084 10.6405C15.7079 11.7797 15.0886 13.0483 13.9486 13.5469C12.9172 13.9976 11.416 13.5723 11.3768 12.2694C11.3657 11.8957 11.5026 11.5211 11.6085 11.1673C11.732 10.7542 11.8695 10.3457 11.9957 9.93349C12.1971 9.27325 12.4477 8.52089 12.2631 7.82873C11.9339 6.59475 10.4085 6.62177 9.65978 7.44467C9.23928 7.90761 9.02948 8.53286 8.98578 9.14976C8.95368 9.60799 9.08642 10.0615 9.1905 10.5049C9.23366 10.6873 9.31072 10.8656 9.28243 11.0494C9.24254 11.3075 9.15659 11.566 9.09494 11.8196C8.87335 12.7275 8.65195 13.636 8.43054 14.5441C8.23924 15.3277 7.99553 16.121 7.88184 16.9203C7.7812 17.625 7.78301 18.3433 7.83632 19.0515C7.85446 19.2962 7.87948 19.5399 7.91157 19.7832C7.92409 19.8797 7.9172 20.1053 7.99553 20.1787C8.19391 20.3648 8.61586 19.6336 8.69982 19.5167C9.09113 18.9703 9.44726 18.3933 9.7276 17.7815C10.132 16.8967 10.3222 15.9074 10.5682 14.9702C10.6341 14.7182 10.7006 14.4656 10.7664 14.2135C11.1764 14.9753 12.1712 15.3634 12.9877 15.4336C13.7546 15.4994 14.5619 15.3458 15.2665 15.0431C16.6869 14.434 17.6994 13.1732 18.2387 11.7503C18.8213 10.2138 19.0275 8.35733 18.4175 6.79803C17.878 5.41934 16.7761 4.32099 15.4484 3.68686C14.2489 3.11366 12.9711 2.99344 11.66 3.00541C12.3001 2.99942 12.9413 2.99707 13.5814 3.00541C13.1562 2.99979 12.731 3.00505 12.3058 3.00505C16.2051 3.00505 9.67139 3.00595 12.3058 3.00505Z" fill="white"/>
</svg>
