<svg width="24" height="24" viewBox="0 0 24 24" fill="none" xmlns="http://www.w3.org/2000/svg">
<path d="M23.287 6.56994V16.7169C23.287 20.3452 20.3453 23.287 16.7171 23.287H6.57052C2.94173 23.287 0 20.3452 0 16.7169V6.56994C0 2.94125 2.94173 0 6.57052 0H16.7171C20.3453 0 23.287 2.94125 23.287 6.56994Z" fill="black"/>
<path d="M11.412 12.6043L10.8963 11.8494L6.89012 5.98833H8.58828L11.8548 10.7243L12.3725 11.4748L16.3906 17.2998H14.6215L11.412 12.6043ZM12.9224 10.8278L12.4055 10.078L9.01894 5.16797H5.33594L10.3452 12.4966L10.8614 13.2519L14.1889 18.1202H17.9527L12.9224 10.8278Z" fill="#FCFCFD"/>
<path d="M10.8963 11.8486L11.412 12.6035L10.8615 13.2511L6.72264 18.1194H5.55469L10.3453 12.4958L10.8963 11.8486Z" fill="#FCFCFD"/>
<path d="M17.7341 5.16797L12.9222 10.8278L12.3722 11.4748L11.8545 10.7243L12.4052 10.078L16.5876 5.16797H17.7341Z" fill="#FCFCFD"/>
</svg>
