<svg width="24" height="24" viewBox="0 0 24 24" fill="none" xmlns="http://www.w3.org/2000/svg">
<path d="M23.287 6.56994V16.7169C23.287 20.3452 20.3453 23.287 16.7171 23.287H6.57033C2.94173 23.287 0 20.3452 0 16.7169V6.56994C0 2.94125 2.94173 0 6.57033 0H16.7171C20.3453 0 23.287 2.94125 23.287 6.56994Z" fill="#ED1C24"/>
<path d="M10.2326 13.7626V9.5281L13.8993 11.6454L10.2326 13.7626ZM18.4063 8.24769C18.2438 7.64058 17.7657 7.1624 17.1586 6.99993C16.0579 6.70508 11.6443 6.70508 11.6443 6.70508C11.6443 6.70508 7.23017 6.70508 6.12949 6.99993C5.52222 7.1624 5.04423 7.64058 4.88176 8.24769C4.58691 9.3484 4.58691 11.6454 4.58691 11.6454C4.58691 11.6454 4.58691 13.9418 4.88176 15.0425C5.04423 15.6496 5.52222 16.1283 6.12949 16.2903C7.23017 16.5855 11.6443 16.5855 11.6443 16.5855C11.6443 16.5855 16.0579 16.5855 17.1586 16.2903C17.7657 16.1283 18.2438 15.6496 18.4063 15.0425C18.7015 13.9418 18.7015 11.6454 18.7015 11.6454C18.7015 11.6454 18.7015 9.3484 18.4063 8.24769Z" fill="white"/>
</svg>
