<?xml version="1.0" encoding="UTF-8"?>
<svg id="Layer_1" data-name="Layer 1" xmlns="http://www.w3.org/2000/svg" viewBox="0 0 4536.57 1679.54">
  <defs>
    <style>
      .cls-1 {
        fill: #fff;
      }

      .cls-2 {
        fill: #e42733;
      }

      .cls-3 {
        fill: none;
        stroke: #000;
        stroke-width: 32.77px;
      }
    </style>
  </defs>
  <g>
    <path d="M2319.11,115.19h69.7v263.65c0,39.15,8.99,68.61,26.98,88.38,18.19,19.57,45.28,29.36,81.26,29.36s62.68-9.79,80.67-29.36c18.19-19.77,27.29-49.23,27.29-88.38V115.19h70.58v270.18c0,58.72-14.83,102.71-44.49,131.98-29.65,29.06-74.34,43.6-134.05,43.6s-104.29-14.53-133.75-43.6c-29.46-29.06-44.19-73.06-44.19-131.98V115.19ZM2772.87,549.37V115.19h70.58v371.01h157.78v63.17h-228.36ZM3165.82,175.09v374.27h-70.58V175.09h-115.37v-59.91h300.73v59.91h-114.78ZM3405.16,300.25h12.75c37.37,0,62.18-4.35,74.44-13.05,12.26-8.7,18.38-24.12,18.38-46.26,0-23.92-6.62-40.73-19.87-50.42-13.04-9.89-37.36-14.83-72.95-14.83h-12.75v124.56ZM3400.71,355.11v194.25h-66.14V115.19h98.46c28.87,0,51.21,1.88,67.03,5.64,16.01,3.76,29.66,9.98,40.92,18.68,13.45,10.48,23.83,24.02,31.14,40.63,7.32,16.61,10.98,34.8,10.98,54.57,0,34.8-8.4,62.08-25.21,81.85-16.81,19.57-41.62,31.34-74.44,35.29l149.47,197.52h-79.78l-144.43-194.25h-8ZM3766.68,378.84h121l-44.49-99.05c-2.57-6.33-5.24-13.54-8.01-21.65-2.76-8.3-5.53-17.5-8.3-27.58-2.37,9.49-4.94,18.39-7.71,26.69-2.57,8.11-5.24,15.62-8.01,22.54l-44.48,99.05ZM3961.82,549.37l-49.23-111.81h-172.01l-50.42,111.81h-74.14l210.27-451.38,209.97,451.38h-74.44ZM2295.98,1100.47l56.35-26.09c5.34,19.37,15.12,34.2,29.36,44.48,14.23,10.09,32.42,15.13,54.57,15.13,20.95,0,37.56-5.84,49.82-17.5,12.46-11.67,18.68-27.28,18.68-46.86,0-25.5-21.15-48.24-63.46-68.21-5.93-2.97-10.48-5.14-13.64-6.53-47.85-23.33-79.78-44.39-95.8-63.17-15.81-18.98-23.72-42.11-23.72-69.4,0-35.39,11.96-64.06,35.88-86.01,24.12-21.95,55.66-32.92,94.61-32.92,32.03,0,58.82,6.23,80.37,18.68,21.55,12.26,36.48,29.95,44.78,53.09l-55.16,28.47c-8.7-13.64-18.29-23.63-28.77-29.95-10.28-6.33-22.14-9.49-35.59-9.49-18.98,0-34.1,4.94-45.37,14.83-11.07,9.89-16.61,23.13-16.61,39.74,0,26.1,24.52,50.42,73.55,72.96,3.76,1.78,6.72,3.16,8.9,4.15,42.9,19.77,72.36,39.15,88.38,58.13,16.01,18.78,24.02,42.31,24.02,70.58,0,41.12-12.95,73.85-38.85,98.16-25.9,24.13-60.9,36.19-104.99,36.19-36.97,0-67.32-8.51-91.05-25.51-23.52-17-38.95-41.32-46.26-72.96ZM2794.51,813.09v374.27h-70.58v-374.27h-115.37v-59.91h300.73v59.91h-114.78ZM3312.92,971.17c0-21.95-4.05-42.8-12.16-62.58-7.91-19.77-19.37-37.37-34.4-52.79-14.63-15.22-31.63-26.89-51.01-35-19.18-8.3-39.44-12.46-60.8-12.46s-41.72,4.05-61.09,12.16c-19.18,8.11-36.28,19.87-51.31,35.29-15.02,15.22-26.49,32.72-34.4,52.49-7.91,19.77-11.86,40.73-11.86,62.87s3.95,42.71,11.86,62.28c7.91,19.57,19.38,37.07,34.4,52.49,15.03,15.42,32.13,27.19,51.31,35.29,19.18,8.11,39.54,12.16,61.09,12.16s41.23-4.05,60.21-12.16c19.17-8.1,36.38-19.87,51.6-35.29,15.03-15.42,26.49-32.92,34.4-52.49,8.11-19.77,12.16-40.53,12.16-62.28ZM3386.47,971.17c0,30.84-5.83,60.01-17.5,87.49-11.46,27.48-28.27,52-50.41,73.55-22.35,21.55-47.55,38.06-75.63,49.53-28.07,11.46-57.53,17.2-88.38,17.2s-61.09-5.74-89.56-17.2c-28.28-11.67-53.29-28.18-75.03-49.53-22.15-21.55-38.95-45.97-50.42-73.26-11.47-27.28-17.2-56.54-17.2-87.78s5.73-60.3,17.2-87.78c11.47-27.48,28.27-52.1,50.42-73.85,22.14-21.55,47.25-37.96,75.32-49.23,28.08-11.27,57.84-16.9,89.27-16.9s60.8,5.63,88.68,16.9c28.07,11.27,53.18,27.68,75.33,49.23,22.14,21.95,38.95,46.76,50.41,74.44,11.67,27.48,17.5,56.55,17.5,87.19ZM3467.44,1187.37v-451.38l275.81,265.43c7.51,7.51,15.12,15.52,22.83,24.02s15.82,18.09,24.32,28.77v-301.02h65.25v451.08l-281.45-270.17c-7.51-7.32-14.83-15.03-21.95-23.13-6.92-8.11-13.54-16.61-19.87-25.51v301.91h-64.94ZM3955.59,1187.37v-434.18h242.3v59.91h-171.71v108.84h171.71v61.98h-171.71v140.28h171.71v63.17h-242.3ZM4253.94,1100.47l56.35-26.09c5.34,19.37,15.13,34.2,29.36,44.48,14.24,10.09,32.43,15.13,54.57,15.13,20.96,0,37.57-5.84,49.82-17.5,12.46-11.67,18.69-27.28,18.69-46.86,0-25.5-21.16-48.24-63.47-68.21-5.93-2.97-10.48-5.14-13.64-6.53-47.85-23.33-79.78-44.39-95.79-63.17-15.82-18.98-23.73-42.11-23.73-69.4,0-35.39,11.96-64.06,35.89-86.01,24.12-21.95,55.65-32.92,94.6-32.92,32.03,0,58.82,6.23,80.37,18.68,21.56,12.26,36.48,29.95,44.79,53.09l-55.17,28.47c-8.7-13.64-18.28-23.63-28.76-29.95-10.28-6.33-22.15-9.49-35.59-9.49-18.98,0-34.11,4.94-45.38,14.83-11.07,9.89-16.61,23.13-16.61,39.74,0,26.1,24.52,50.42,73.55,72.96,3.76,1.78,6.73,3.16,8.9,4.15,42.91,19.77,72.37,39.15,88.38,58.13,16.01,18.78,24.02,42.31,24.02,70.58,0,41.12-12.95,73.85-38.85,98.16-25.9,24.13-60.89,36.19-104.98,36.19-36.98,0-67.33-8.51-91.05-25.51-23.53-17-38.95-41.32-46.27-72.96Z"/>
    <path d="M2415,1586.84v20.89h-95.93v-167.57h24.86v146.68h71.07ZM2510.51,1587.78c6.69,0,12.68-1.13,17.97-3.39,5.29-2.25,9.76-5.4,13.42-9.45,3.66-4.12,6.46-8.98,8.4-14.59,1.95-5.67,2.92-11.94,2.92-18.78v-101.41h24.74v101.41c0,9.8-1.56,18.86-4.67,27.19-3.11,8.32-7.58,15.52-13.42,21.59-5.83,6.06-12.91,10.81-21.24,14.23-8.32,3.43-17.7,5.14-28.12,5.14s-19.8-1.71-28.13-5.14c-8.32-3.42-15.4-8.17-21.23-14.23-5.84-6.07-10.31-13.27-13.42-21.59-3.12-8.33-4.67-17.39-4.67-27.19v-101.41h24.85v101.29c0,6.85.94,13.11,2.81,18.79,1.94,5.68,4.74,10.58,8.4,14.7,3.65,4.05,8.13,7.2,13.42,9.45,5.29,2.26,11.28,3.39,17.97,3.39ZM2758.91,1607.73h-24.62c-1.79,0-3.23-.46-4.32-1.4-1.09-1.01-1.95-2.06-2.57-3.15l-43.29-68.97c-.63,1.95-1.36,3.62-2.22,5.02l-42.13,63.95c-.78,1.09-1.67,2.14-2.68,3.15-1.01.94-2.3,1.4-3.85,1.4h-23.22l57.29-86.23-54.84-81.34h24.62c1.79,0,3.11.27,3.97.81.85.55,1.59,1.37,2.21,2.46l42.36,65.7c.63-2.03,1.48-3.89,2.57-5.61l39.68-59.63c.7-1.24,1.48-2.18,2.33-2.8.86-.62,1.95-.93,3.27-.93h23.69l-55.2,80.28,56.95,87.29ZM2858.64,1587.78c6.69,0,12.68-1.13,17.97-3.39,5.29-2.25,9.76-5.4,13.42-9.45,3.66-4.12,6.46-8.98,8.4-14.59,1.95-5.67,2.92-11.94,2.92-18.78v-101.41h24.74v101.41c0,9.8-1.56,18.86-4.67,27.19-3.11,8.32-7.59,15.52-13.42,21.59-5.83,6.06-12.91,10.81-21.24,14.23-8.32,3.43-17.7,5.14-28.12,5.14s-19.8-1.71-28.13-5.14c-8.32-3.42-15.4-8.17-21.24-14.23-5.83-6.07-10.3-13.27-13.42-21.59-3.11-8.33-4.66-17.39-4.66-27.19v-101.41h24.85v101.29c0,6.85.94,13.11,2.8,18.79,1.95,5.68,4.75,10.58,8.41,14.7,3.65,4.05,8.13,7.2,13.42,9.45,5.29,2.26,11.28,3.39,17.97,3.39ZM3024.53,1520.91c6.38,0,11.98-.78,16.81-2.33,4.9-1.56,8.98-3.74,12.25-6.54,3.27-2.88,5.72-6.26,7.35-10.15,1.64-3.97,2.45-8.32,2.45-13.07,0-9.65-3.19-16.92-9.57-21.82-6.3-4.9-15.79-7.35-28.47-7.35h-23.46v61.26h22.64ZM3102.72,1607.73h-22.17c-4.44,0-7.67-1.75-9.69-5.25l-41.42-58.11c-1.33-1.95-2.77-3.31-4.32-4.09-1.56-.85-3.89-1.28-7-1.28h-16.23v68.73h-24.85v-167.57h48.31c10.81,0,20.11,1.13,27.89,3.38,7.86,2.18,14.32,5.33,19.37,9.45,5.14,4.05,8.91,8.95,11.32,14.71,2.49,5.76,3.74,12.21,3.74,19.37,0,5.83-.9,11.32-2.69,16.45-1.79,5.14-4.43,9.77-7.93,13.89-3.43,4.05-7.63,7.55-12.61,10.5-4.98,2.96-10.62,5.22-16.92,6.77,3.11,1.87,5.8,4.48,8.05,7.82l47.15,65.23ZM3194.34,1541.45v66.28h-24.74v-66.28l-61.38-101.29h21.82c2.18,0,3.93.54,5.25,1.63,1.33,1.01,2.41,2.37,3.27,4.09l36.41,62.66c1.48,2.88,2.8,5.6,3.97,8.17,1.24,2.57,2.33,5.1,3.26,7.59.86-2.49,1.83-5.02,2.92-7.59,1.17-2.57,2.49-5.29,3.97-8.17l36.29-62.66c.78-1.4,1.83-2.69,3.15-3.86,1.4-1.24,3.15-1.86,5.25-1.86h21.94l-61.38,101.29ZM3435.85,1467.46c-.78,1.33-1.6,2.3-2.45,2.92-.86.62-1.95.94-3.27.94-1.4,0-2.99-.63-4.78-1.87-1.79-1.32-4.05-2.76-6.77-4.32-2.65-1.63-5.84-3.07-9.57-4.32-3.73-1.32-8.21-1.98-13.42-1.98-4.9,0-9.22.66-12.95,1.98-3.66,1.25-6.73,3-9.22,5.25-2.49,2.18-4.4,4.79-5.72,7.82-1.25,2.96-1.87,6.19-1.87,9.69,0,4.51,1.13,8.25,3.39,11.2,2.33,2.96,5.36,5.49,9.1,7.59,3.73,2.1,7.97,3.93,12.72,5.48,4.74,1.56,9.61,3.19,14.59,4.9,4.97,1.64,9.84,3.54,14.58,5.72,4.75,2.18,8.99,4.94,12.72,8.29,3.74,3.26,6.73,7.31,8.99,12.13,2.33,4.75,3.5,10.58,3.5,17.51,0,7.39-1.28,14.31-3.85,20.77-2.49,6.46-6.15,12.1-10.97,16.92-4.83,4.82-10.78,8.64-17.86,11.44-7,2.72-14.97,4.08-23.92,4.08-5.37,0-10.58-.54-15.64-1.63-5.05-1.01-9.84-2.45-14.35-4.32-4.51-1.95-8.75-4.24-12.72-6.89-3.89-2.72-7.39-5.75-10.5-9.1l7.12-11.9c.7-.93,1.51-1.71,2.45-2.34,1.01-.62,2.14-.93,3.38-.93,1.63,0,3.5.86,5.6,2.57,2.18,1.71,4.83,3.62,7.94,5.72,3.19,2.02,6.96,3.89,11.32,5.6,4.43,1.71,9.8,2.57,16.1,2.57,5.14,0,9.73-.67,13.77-1.99,4.05-1.4,7.43-3.34,10.15-5.83,2.8-2.57,4.94-5.64,6.42-9.22,1.48-3.58,2.22-7.55,2.22-11.91,0-4.9-1.13-8.9-3.38-12.01-2.26-3.12-5.26-5.72-8.99-7.82s-7.97-3.89-12.72-5.37-9.61-3-14.59-4.55c-4.98-1.64-9.84-3.5-14.58-5.6-4.75-2.1-8.99-4.83-12.72-8.17-3.74-3.43-6.73-7.67-8.99-12.72-2.26-5.14-3.38-11.44-3.38-18.91,0-5.99,1.16-11.78,3.5-17.39,2.33-5.6,5.72-10.54,10.15-14.82,4.51-4.35,10.04-7.81,16.57-10.38,6.54-2.65,14-3.97,22.41-3.97,9.41,0,18.05,1.52,25.9,4.55,7.94,2.96,14.82,7.24,20.66,12.84l-6.07,11.78ZM3553.12,1587.78c6.69,0,12.68-1.13,17.97-3.39,5.29-2.25,9.76-5.4,13.42-9.45,3.65-4.12,6.46-8.98,8.4-14.59,1.95-5.67,2.92-11.94,2.92-18.78v-101.41h24.74v101.41c0,9.8-1.56,18.86-4.67,27.19-3.11,8.32-7.59,15.52-13.42,21.59-5.84,6.06-12.92,10.81-21.24,14.23-8.32,3.43-17.7,5.14-28.12,5.14s-19.8-1.71-28.13-5.14c-8.32-3.42-15.4-8.17-21.24-14.23-5.83-6.07-10.3-13.27-13.42-21.59-3.11-8.33-4.66-17.39-4.66-27.19v-101.41h24.85v101.29c0,6.85.94,13.11,2.8,18.79,1.95,5.68,4.75,10.58,8.41,14.7,3.65,4.05,8.13,7.2,13.42,9.45,5.29,2.26,11.28,3.39,17.97,3.39ZM3719.01,1520.91c6.38,0,11.98-.78,16.81-2.33,4.9-1.56,8.98-3.74,12.25-6.54,3.27-2.88,5.72-6.26,7.35-10.15,1.64-3.97,2.45-8.32,2.45-13.07,0-9.65-3.19-16.92-9.57-21.82-6.3-4.9-15.79-7.35-28.47-7.35h-23.46v61.26h22.64ZM3797.2,1607.73h-22.17c-4.44,0-7.67-1.75-9.69-5.25l-41.43-58.11c-1.32-1.95-2.76-3.31-4.31-4.09-1.56-.85-3.89-1.28-7.01-1.28h-16.22v68.73h-24.85v-167.57h48.31c10.81,0,20.11,1.13,27.89,3.38,7.86,2.18,14.32,5.33,19.37,9.45,5.14,4.05,8.91,8.95,11.32,14.71,2.49,5.76,3.74,12.21,3.74,19.37,0,5.83-.9,11.32-2.69,16.45-1.79,5.14-4.43,9.77-7.93,13.89-3.43,4.05-7.63,7.55-12.61,10.5-4.98,2.96-10.62,5.22-16.92,6.77,3.11,1.87,5.8,4.48,8.05,7.82l47.15,65.23ZM3855.4,1460.35v56.13h67.22v20.19h-67.22v71.06h-24.97v-167.57h103.85v20.19h-78.88ZM4049.65,1545.3l-24.85-65c-1.79-4.43-3.58-10.03-5.37-16.8-.86,3.34-1.75,6.45-2.68,9.33-.86,2.88-1.72,5.45-2.57,7.7l-24.74,64.77h60.21ZM4098.78,1607.73h-19.14c-2.17,0-3.96-.54-5.36-1.63-1.4-1.09-2.42-2.49-3.04-4.2l-14.82-38.86h-73.87l-14.82,38.86c-.54,1.48-1.55,2.84-3.03,4.08-1.48,1.17-3.27,1.75-5.37,1.75h-19.14l66.75-167.57h25.09l66.75,167.57ZM4243.86,1571.79c1.4,0,2.61.55,3.62,1.63l9.8,10.74c-6.84,8.09-15.21,14.35-25.09,18.79-9.8,4.43-21.63,6.65-35.47,6.65-12.14,0-23.15-2.1-33.03-6.3-9.8-4.2-18.2-10.08-25.2-17.62-6.93-7.55-12.3-16.57-16.11-27.08-3.81-10.5-5.72-22.05-5.72-34.65s1.99-24.16,5.95-34.66c4.05-10.51,9.69-19.53,16.93-27.08,7.23-7.54,15.87-13.42,25.9-17.62,10.12-4.2,21.28-6.3,33.49-6.3s22.49,1.95,31.75,5.84c9.25,3.89,17.3,9.06,24.15,15.52l-8.17,11.55c-.54.85-1.24,1.55-2.1,2.1-.78.54-1.83.82-3.15.82-1.48,0-3.23-.74-5.25-2.22-1.95-1.48-4.55-3.11-7.82-4.9-3.19-1.87-7.16-3.54-11.9-5.02-4.75-1.48-10.66-2.22-17.74-2.22-8.32,0-15.95,1.48-22.87,4.44-6.93,2.88-12.92,7.08-17.97,12.6-4.98,5.45-8.87,12.18-11.67,20.19-2.73,7.93-4.09,16.92-4.09,26.96s1.44,19.25,4.32,27.19c2.88,7.93,6.85,14.66,11.9,20.18,5.06,5.53,11.01,9.73,17.86,12.61,6.84,2.88,14.23,4.32,22.17,4.32,4.82,0,9.14-.28,12.95-.82,3.89-.62,7.43-1.52,10.62-2.69,3.27-1.16,6.34-2.64,9.22-4.43,2.88-1.87,5.72-4.08,8.52-6.65.62-.55,1.28-.97,1.98-1.29.7-.38,1.44-.58,2.22-.58ZM4397.9,1587.55l-.11,20.18h-103.86v-167.57h103.86v20.19h-78.89v53.09h63.48v19.49h-63.48v54.62h79ZM4527.01,1467.46c-.78,1.33-1.6,2.3-2.46,2.92-.85.62-1.94.94-3.26.94-1.4,0-3-.63-4.79-1.87-1.79-1.32-4.04-2.76-6.77-4.32-2.64-1.63-5.83-3.07-9.57-4.32-3.73-1.32-8.2-1.98-13.42-1.98-4.9,0-9.21.66-12.95,1.98-3.65,1.25-6.73,3-9.22,5.25-2.49,2.18-4.39,4.79-5.72,7.82-1.24,2.96-1.86,6.19-1.86,9.69,0,4.51,1.13,8.25,3.38,11.2,2.34,2.96,5.37,5.49,9.1,7.59,3.74,2.1,7.98,3.93,12.72,5.48,4.75,1.56,9.61,3.19,14.59,4.9,4.98,1.64,9.84,3.54,14.59,5.72,4.74,2.18,8.98,4.94,12.72,8.29,3.73,3.26,6.73,7.31,8.98,12.13,2.34,4.75,3.5,10.58,3.5,17.51,0,7.39-1.28,14.31-3.85,20.77-2.49,6.46-6.14,12.1-10.97,16.92-4.82,4.82-10.77,8.64-17.85,11.44-7,2.72-14.98,4.08-23.92,4.08-5.37,0-10.58-.54-15.64-1.63-5.06-1.01-9.84-2.45-14.35-4.32-4.52-1.95-8.76-4.24-12.72-6.89-3.89-2.72-7.4-5.75-10.51-9.1l7.12-11.9c.7-.93,1.52-1.71,2.45-2.34,1.01-.62,2.14-.93,3.39-.93,1.63,0,3.5.86,5.6,2.57,2.18,1.71,4.82,3.62,7.93,5.72,3.19,2.02,6.97,3.89,11.32,5.6,4.44,1.71,9.81,2.57,16.11,2.57,5.13,0,9.72-.67,13.77-1.99,4.04-1.4,7.43-3.34,10.15-5.83,2.8-2.57,4.94-5.64,6.42-9.22s2.21-7.55,2.21-11.91c0-4.9-1.12-8.9-3.38-12.01-2.26-3.12-5.25-5.72-8.98-7.82-3.74-2.1-7.98-3.89-12.72-5.37-4.75-1.48-9.61-3-14.59-4.55-4.98-1.64-9.84-3.5-14.59-5.6-4.74-2.1-8.98-4.83-12.72-8.17-3.73-3.43-6.73-7.67-8.98-12.72-2.26-5.14-3.39-11.44-3.39-18.91,0-5.99,1.17-11.78,3.5-17.39,2.34-5.6,5.72-10.54,10.15-14.82,4.52-4.35,10.04-7.81,16.58-10.38,6.53-2.65,14-3.97,22.4-3.97,9.41,0,18.05,1.52,25.91,4.55,7.93,2.96,14.82,7.24,20.65,12.84l-6.06,11.78Z"/>
  </g>
  <path class="cls-3" d="M2011.44.02v1679.52"/>
  <rect class="cls-2" width="1679.52" height="1679.52"/>
  <path class="cls-1" d="M1134.56,1575.97l-.06,11.6h-55.09v-88.35h55.09v11.59h-40.68v26.63h32.52v11.23h-32.52v27.3h40.74ZM1198.14,1514.31c-.45.74-.92,1.29-1.41,1.66-.49.33-1.1.49-1.84.49-.78,0-1.65-.33-2.64-.98-.94-.66-2.12-1.37-3.56-2.15-1.39-.82-3.04-1.55-4.96-2.21-1.93-.69-4.22-1.04-6.88-1.04-2.45,0-4.62.3-6.5.92-1.84.61-3.39,1.47-4.66,2.58-1.27,1.1-2.23,2.41-2.89,3.92-.61,1.47-.92,3.09-.92,4.85,0,2.25.6,4.13,1.78,5.64,1.19,1.48,2.74,2.74,4.67,3.81,1.96,1.06,4.19,2,6.68,2.82,2.5.78,5.03,1.61,7.61,2.51,2.62.9,5.18,1.93,7.67,3.07,2.5,1.15,4.7,2.6,6.63,4.36,1.96,1.76,3.53,3.9,4.72,6.44,1.19,2.54,1.78,5.62,1.78,9.26,0,3.93-.68,7.61-2.03,11.05-1.34,3.43-3.31,6.44-5.88,9.02-2.54,2.53-5.69,4.54-9.45,6.01-3.73,1.47-7.98,2.21-12.76,2.21-2.83,0-5.59-.29-8.29-.86-2.66-.53-5.21-1.29-7.67-2.27-2.41-1.02-4.68-2.25-6.81-3.68-2.12-1.43-4.02-3.03-5.7-4.79l4.17-6.87c.37-.57.84-1.02,1.41-1.35.57-.33,1.21-.49,1.9-.49.94,0,1.99.45,3.13,1.35,1.15.86,2.52,1.82,4.11,2.88,1.64,1.03,3.6,1.99,5.89,2.89,2.29.86,5.03,1.28,8.22,1.28,5.2,0,9.21-1.26,12.03-3.8,2.86-2.53,4.29-6.03,4.29-10.49,0-2.49-.59-4.52-1.78-6.07-1.18-1.6-2.76-2.93-4.72-3.99-1.92-1.07-4.13-1.96-6.63-2.7-2.49-.74-5.03-1.51-7.6-2.33-2.58-.86-5.12-1.84-7.61-2.95-2.5-1.14-4.73-2.62-6.69-4.41-1.92-1.85-3.48-4.09-4.66-6.75-1.19-2.7-1.78-6.06-1.78-10.07,0-3.19.61-6.27,1.84-9.26,1.27-2.99,3.09-5.62,5.46-7.91,2.41-2.34,5.38-4.2,8.9-5.59,3.51-1.39,7.52-2.08,12.02-2.08,5.07,0,9.72.79,13.93,2.39,4.25,1.6,7.91,3.87,10.98,6.81l-3.5,6.87ZM1281.57,1511.18h-27.55v76.39h-14.29v-76.39h-27.61v-11.96h69.45v11.96ZM1374.27,1575.11c1.43,0,2.55.43,3.37,1.29.82.82,1.23,1.88,1.23,3.19v7.98h-59.76v-4.48c0-.9.18-1.84.55-2.83.37-.98.96-1.88,1.78-2.69l27.49-27.55c2.33-2.33,4.39-4.56,6.19-6.69,1.84-2.13,3.4-4.25,4.67-6.38,1.31-2.13,2.29-4.27,2.94-6.44.7-2.21,1.05-4.52,1.05-6.93s-.37-4.38-1.11-6.14c-.69-1.8-1.68-3.27-2.94-4.42-1.23-1.18-2.72-2.06-4.48-2.64-1.72-.61-3.62-.92-5.71-.92s-3.86.29-5.58.86c-1.68.58-3.19,1.37-4.54,2.4-1.31,1.02-2.41,2.25-3.31,3.68-.86,1.39-1.5,2.92-1.91,4.6-.61,1.68-1.41,2.8-2.39,3.37-.94.58-2.33.7-4.17.37l-6.93-1.23c.61-4.17,1.75-7.83,3.43-10.98,1.72-3.15,3.87-5.76,6.44-7.85,2.58-2.13,5.53-3.72,8.84-4.79,3.35-1.1,6.97-1.65,10.86-1.65s7.52.59,10.8,1.78c3.31,1.14,6.15,2.8,8.52,4.97,2.42,2.12,4.3,4.72,5.65,7.79,1.35,3.07,2.02,6.52,2.02,10.37,0,3.27-.49,6.29-1.47,9.08-.94,2.78-2.23,5.44-3.87,7.97-1.63,2.54-3.55,5.01-5.76,7.43-2.17,2.37-4.46,4.78-6.87,7.24l-21.35,21.84c1.75-.49,3.51-.88,5.27-1.17,1.8-.29,3.5-.43,5.09-.43h25.96ZM1454.71,1543.39c0,7.73-.84,14.42-2.52,20.06-1.63,5.65-3.9,10.33-6.81,14.05-2.9,3.73-6.32,6.49-10.24,8.29-3.93,1.8-8.16,2.7-12.7,2.7s-8.78-.9-12.7-2.7c-3.93-1.8-7.34-4.56-10.25-8.29-2.86-3.72-5.11-8.4-6.75-14.05-1.63-5.64-2.45-12.33-2.45-20.06s.82-14.42,2.45-20.06c1.64-5.69,3.89-10.37,6.75-14.05,2.91-3.72,6.32-6.48,10.25-8.28,3.92-1.84,8.16-2.76,12.7-2.76s8.77.92,12.7,2.76c3.92,1.8,7.34,4.56,10.24,8.28,2.91,3.68,5.18,8.36,6.81,14.05,1.68,5.64,2.52,12.33,2.52,20.06ZM1441.09,1543.39c0-6.54-.53-11.98-1.6-16.32-1.02-4.37-2.39-7.87-4.11-10.49-1.72-2.62-3.7-4.48-5.95-5.58-2.25-1.11-4.58-1.66-6.99-1.66s-4.81.55-7.06,1.66c-2.21,1.1-4.17,2.96-5.89,5.58-1.72,2.62-3.09,6.12-4.11,10.49-1.02,4.34-1.53,9.78-1.53,16.32s.51,12.01,1.53,16.38c1.02,4.34,2.39,7.82,4.11,10.43,1.72,2.62,3.68,4.48,5.89,5.59,2.25,1.1,4.6,1.65,7.06,1.65s4.74-.55,6.99-1.65c2.25-1.11,4.23-2.97,5.95-5.59,1.72-2.61,3.09-6.09,4.11-10.43,1.07-4.37,1.6-9.83,1.6-16.38ZM1522.94,1577.57v10h-48.16v-10h18.41v-55.34c0-1.97.06-3.97.18-6.02l-14.17,11.97c-.62.49-1.25.82-1.9.98-.62.12-1.21.12-1.78,0-.54-.12-1.03-.31-1.48-.55-.41-.29-.73-.6-.98-.92l-4.11-5.77,26.63-22.89h10.73v78.54h16.63ZM1540.19,1523.51c.61-4.17,1.76-7.83,3.44-10.98,1.71-3.15,3.86-5.76,6.44-7.85,2.57-2.13,5.52-3.72,8.83-4.79,3.36-1.1,6.98-1.65,10.86-1.65s7.49.57,10.68,1.72c3.23,1.1,5.99,2.65,8.28,4.66,2.33,2,4.11,4.39,5.34,7.18,1.27,2.78,1.9,5.82,1.9,9.14,0,2.82-.35,5.31-1.04,7.48-.66,2.13-1.62,4.01-2.89,5.65-1.22,1.63-2.74,3-4.54,4.11-1.8,1.1-3.82,2.02-6.07,2.76,5.48,1.59,9.59,4.15,12.33,7.67,2.74,3.47,4.11,7.85,4.11,13.13,0,4.25-.8,8.03-2.39,11.35-1.6,3.31-3.76,6.11-6.5,8.4-2.7,2.29-5.87,4.05-9.51,5.28-3.6,1.18-7.43,1.78-11.48,1.78-4.54,0-8.46-.53-11.78-1.6-3.31-1.1-6.17-2.66-8.59-4.66-2.37-2.05-4.35-4.5-5.95-7.36-1.59-2.87-2.94-6.08-4.05-9.64l5.71-2.39c1.51-.65,2.94-.84,4.29-.55,1.39.29,2.4,1.04,3.01,2.27.65,1.31,1.39,2.72,2.21,4.23.82,1.48,1.86,2.85,3.13,4.11,1.31,1.23,2.9,2.27,4.78,3.13,1.93.82,4.28,1.23,7.06,1.23s5.27-.45,7.36-1.35c2.13-.94,3.89-2.13,5.28-3.56,1.43-1.47,2.49-3.11,3.19-4.91.69-1.8,1.04-3.58,1.04-5.33,0-2.21-.27-4.24-.8-6.08-.53-1.88-1.57-3.47-3.13-4.78-1.51-1.31-3.68-2.33-6.5-3.07-2.78-.78-6.44-1.17-10.98-1.17v-9.51c3.72-.04,6.85-.41,9.39-1.1,2.57-.74,4.62-1.72,6.13-2.95,1.55-1.26,2.66-2.78,3.31-4.54.7-1.75,1.05-3.68,1.05-5.76,0-2.25-.35-4.24-1.05-5.95-.69-1.72-1.67-3.15-2.94-4.3-1.23-1.18-2.7-2.06-4.42-2.64-1.72-.57-3.62-.86-5.7-.86s-3.87.29-5.59.86c-1.67.58-3.19,1.37-4.54,2.4-1.31,1.02-2.41,2.25-3.31,3.68-.9,1.39-1.55,2.92-1.96,4.6-.58,1.68-1.35,2.8-2.33,3.37-.95.58-2.34.7-4.18.37l-6.93-1.23Z"/>
  <circle class="cls-1" cx="1024.3" cy="1553.27" r="14.45"/>
  <path class="cls-1" d="M1379.42,523.71h-187.17c0-45.24-1.59-96.08-15.25-118.12-34.09-55.01-132.3-52.89-178.47-17.93.31-29.76,1.47-112.94.72-181.4,163.85-15.89,279.67,23.91,337.71,124.04,28.68,49.46,40.61,122.29,42.46,193.4Z"/>
  <path class="cls-1" d="M1000.92,865.51v-270.65c59.57,100.83,342.78,202.99,373.28,394.87,45.92,288.83-219.81,460.48-479.97,351.36,4.27-3.45,35.77-36.1,54.88-69.8s29.08-62.8,34.17-79.49c167.32,49.53,210.39-58.62,197.37-149.77-10.41-72.91-129.2-138.39-179.73-176.52Z"/>
  <path class="cls-1" d="M508.96,207.18h-208.87c.31,225.98.94,713.23.94,854.36,0,212.26,113.87,312.49,302.48,312.49s325.95-103,325.95-312.49V207.18h-202.25v897.15c0,134.37-218.25,132.66-218.25,0V207.18Z"/>
</svg>